<?xml version="1.0" standalone="no"?>
<!DOCTYPE svg PUBLIC "-//W3C//DTD SVG 1.1//EN" "http://www.w3.org/Graphics/SVG/1.1/DTD/svg11.dtd" >
<svg xmlns="http://www.w3.org/2000/svg" xmlns:xlink="http://www.w3.org/1999/xlink" version="1.1">
<metadata></metadata>
<defs>
<font id="apex_mk2bold_extended" horiz-adv-x="1363" >
<font-face units-per-em="2048" ascent="1638" descent="-410" />
<missing-glyph horiz-adv-x="614" />
<glyph horiz-adv-x="0" />
<glyph horiz-adv-x="682" />
<glyph unicode=" "  horiz-adv-x="614" />
<glyph unicode="&#x09;" horiz-adv-x="614" />
<glyph unicode="&#xa0;" horiz-adv-x="614" />
<glyph unicode="!" horiz-adv-x="442" d="M92 106v58q0 44 31.5 75t75.5 31h45q44 0 75 -31t31 -75v-58q0 -44 -31 -75t-75 -31h-45q-44 0 -75.5 31t-31.5 75zM92 1434h258l-10 -1000h-238z" />
<glyph unicode="#" horiz-adv-x="1429" d="M10 262l80 254h217l80 254h-219l80 254h217l65 213h246l-65 -213h215l65 213h246l-66 -213h218l-80 -254h-215l-80 -254h217l-80 -254h-215l-66 -213h-245l65 213h-215l-65 -213h-246l65 213h-219zM553 516h215l80 254h-215z" />
<glyph unicode="$" d="M160 158v252h258v-119q0 -15 12 -26t29 -11h446q17 0 29 11t12 26v262q0 15 -12 26t-29 11h-573q-70 0 -121 46.5t-51 111.5v528q0 65 51 111.5t121 46.5h221v163h258v-163h221q70 0 121 -46.5t51 -111.5v-252h-258v119q0 15 -12 26t-29 11h-446q-17 0 -29 -11t-12 -26 v-262q0 -15 12 -26t29 -11h573q70 0 121 -46.5t51 -111.5v-528q0 -65 -51 -111.5t-121 -46.5h-221v-164h-258v164h-221q-70 0 -121 46.5t-51 111.5z" />
<glyph unicode="%" horiz-adv-x="1501" d="M106 981v283q0 54 37 91.5t90 37.5h263q53 0 90 -37.5t37 -91.5v-283q0 -54 -37 -91.5t-90 -37.5h-263q-53 0 -90 37.5t-37 91.5zM186 0l830 1434h284l-829 -1434h-285zM293 1085q0 -16 11.5 -28.5t29.5 -12.5h61q18 0 29.5 12.5t11.5 28.5v74q0 16 -11.5 28.5 t-29.5 12.5h-61q-18 0 -29.5 -12.5t-11.5 -28.5v-74zM879 170v283q0 54 37 91.5t90 37.5h262q53 0 90 -37.5t37 -91.5v-283q0 -54 -37 -91.5t-90 -37.5h-262q-53 0 -90 37.5t-37 91.5zM1065 274q0 -16 11.5 -28.5t29.5 -12.5h61q18 0 29.5 12.5t11.5 28.5v74 q0 16 -11.5 28.5t-29.5 12.5h-61q-18 0 -29.5 -12.5t-11.5 -28.5v-74z" />
<glyph unicode="&#x26;" horiz-adv-x="1228" d="M88 158v424q0 49 27.5 85t74.5 50q-47 14 -74.5 50t-27.5 85v424q0 65 51 111.5t121 46.5h701q70 0 121 -46.5t51 -111.5v-252h-259v119q0 15 -11.5 26t-28.5 11h-447q-17 0 -29 -11t-12 -26v-258q0 -22 9.5 -31.5t31.5 -9.5h875v-254h-129v-432q0 -65 -51 -111.5 t-121 -46.5h-701q-70 0 -121 46.5t-51 111.5zM346 291q0 -15 12 -26t29 -11h447q17 0 28.5 11t11.5 26v299h-487q-22 0 -31.5 -9.5t-9.5 -31.5v-258z" />
<glyph unicode="(" horiz-adv-x="378" d="M39 158v1118q0 65 51 111.5t121 46.5h127v-254q-17 0 -29 -11t-12 -26v-852q0 -15 12 -26t29 -11v-254h-127q-70 0 -121 46.5t-51 111.5z" />
<glyph unicode=")" horiz-adv-x="378" d="M41 0v254q17 0 29 11t12 26v852q0 15 -12 26t-29 11v254h127q70 0 121 -46.5t51 -111.5v-1118q0 -65 -51 -111.5t-121 -46.5h-127z" />
<glyph unicode="*" horiz-adv-x="894" d="M41 961v198h223l-121 281h219l84 -197l86 197h218l-119 -281h223v-198h-223l119 -279h-218l-86 197l-84 -197h-219l121 279h-223z" />
<glyph unicode="+" horiz-adv-x="1040" d="M59 590v254h332v334h258v-334h332v-254h-332v-334h-258v334h-332z" />
<glyph unicode="," horiz-adv-x="362" d="M20 -174l82 450h220l-111 -450h-191z" />
<glyph unicode="-" horiz-adv-x="610" d="M41 590v254h528v-254h-528z" />
<glyph unicode="." horiz-adv-x="323" d="M33 106v58q0 44 31 75t75 31h45q44 0 75.5 -31t31.5 -75v-58q0 -44 -31.5 -75t-75.5 -31h-45q-44 0 -75 31t-31 75z" />
<glyph unicode="/" horiz-adv-x="776" d="M41 0l436 1434h258l-436 -1434h-258z" />
<glyph unicode="0" horiz-adv-x="1368" d="M160 158v1118q0 65 51 111.5t121 46.5h704q70 0 121 -46.5t51 -111.5v-1118q0 -65 -51 -111.5t-121 -46.5h-704q-70 0 -121 46.5t-51 111.5zM418 291q0 -15 12 -26t29 -11h450q17 0 29 11t12 26v852q0 15 -12 26t-29 11h-450q-17 0 -29 -11t-12 -26v-852z" />
<glyph unicode="1" horiz-adv-x="577" d="M160 0v1434h258v-1434h-258z" />
<glyph unicode="2" d="M160 0v686q0 65 51 111.5t121 46.5h573q17 0 29 11t12 26v262q0 15 -12 26t-29 11h-446q-17 0 -29 -11t-12 -26v-119h-258v252q0 65 51 111.5t121 46.5h700q70 0 121 -46.5t51 -111.5v-528q0 -65 -51 -111.5t-121 -46.5h-573q-17 0 -29 -11t-12 -26v-299h528v156h258 v-410h-1044z" />
<glyph unicode="3" horiz-adv-x="1331" d="M127 158v252h258v-119q0 -15 12 -26t29 -11h446q17 0 29 11t12 26v258q0 22 -9.5 31.5t-31.5 9.5h-446v254h446q22 0 31.5 9.5t9.5 31.5v258q0 15 -12 26t-29 11h-446q-17 0 -29 -11t-12 -26v-119h-258v252q0 65 51 111.5t121 46.5h700q70 0 121 -46.5t51 -111.5v-424 q0 -49 -27.5 -85t-74.5 -50q47 -14 74.5 -50t27.5 -85v-424q0 -65 -51 -111.5t-121 -46.5h-700q-70 0 -121 46.5t-51 111.5z" />
<glyph unicode="4" horiz-adv-x="1259" d="M59 717l263 717h266l-262 -717h516v717h258v-1434h-258v465h-654q-53 0 -90 37.5t-37 91.5z" />
<glyph unicode="5" d="M160 158v252h258v-119q0 -15 12 -26t29 -11h446q17 0 29 11t12 26v262q0 15 -12 26t-29 11h-573q-70 0 -121 46.5t-51 111.5v686h1044v-410h-258v156h-528v-299q0 -15 12 -26t29 -11h573q70 0 121 -46.5t51 -111.5v-528q0 -65 -51 -111.5t-121 -46.5h-700 q-70 0 -121 46.5t-51 111.5z" />
<glyph unicode="6" d="M160 158v1118q0 65 51 111.5t121 46.5h700q70 0 121 -46.5t51 -111.5v-252h-258v119q0 15 -12 26t-29 11h-446q-17 0 -29 -11t-12 -26v-299h614q70 0 121 -46.5t51 -111.5v-528q0 -65 -51 -111.5t-121 -46.5h-700q-70 0 -121 46.5t-51 111.5zM418 291q0 -15 12 -26 t29 -11h446q17 0 29 11t12 26v262q0 15 -12 26t-29 11h-487v-299z" />
<glyph unicode="7" horiz-adv-x="1163" d="M59 1024v410h1045v-254l-469 -1180h-277l467 1180h-508v-156h-258z" />
<glyph unicode="8" d="M160 158v424q0 49 27.5 85t74.5 50q-47 14 -74.5 50t-27.5 85v424q0 65 51 111.5t121 46.5h700q70 0 121 -46.5t51 -111.5v-424q0 -49 -27.5 -85t-74.5 -50q47 -14 74.5 -50t27.5 -85v-424q0 -65 -51 -111.5t-121 -46.5h-700q-70 0 -121 46.5t-51 111.5zM418 291 q0 -15 12 -26t29 -11h446q17 0 29 11t12 26v258q0 22 -9.5 31.5t-31.5 9.5h-446q-22 0 -31.5 -9.5t-9.5 -31.5v-258zM418 885q0 -22 9.5 -31.5t31.5 -9.5h446q22 0 31.5 9.5t9.5 31.5v258q0 15 -12 26t-29 11h-446q-17 0 -29 -11t-12 -26v-258z" />
<glyph unicode="9" d="M160 158v252h258v-119q0 -15 12 -26t29 -11h446q17 0 29 11t12 26v299h-614q-70 0 -121 46.5t-51 111.5v528q0 65 51 111.5t121 46.5h700q70 0 121 -46.5t51 -111.5v-1118q0 -65 -51 -111.5t-121 -46.5h-700q-70 0 -121 46.5t-51 111.5zM418 881q0 -15 12 -26t29 -11h487 v299q0 15 -12 26t-29 11h-446q-17 0 -29 -11t-12 -26v-262z" />
<glyph unicode=":" horiz-adv-x="339" d="M39 901v57q0 44 31 75.5t75 31.5h45q44 0 75.5 -31.5t31.5 -75.5v-57q0 -44 -31.5 -75t-75.5 -31h-45q-44 0 -75 31t-31 75zM41 188v58q0 44 31 75t75 31h46q44 0 75 -31t31 -75v-58q0 -44 -31 -75t-75 -31h-46q-44 0 -75 31t-31 75z" />
<glyph unicode=";" horiz-adv-x="366" d="M20 -174l82 450h220l-111 -450h-191zM70 901v57q0 44 31 75.5t75 31.5h45q44 0 75.5 -31.5t31.5 -75.5v-57q0 -44 -31.5 -75t-75.5 -31h-45q-44 0 -75 31t-31 75z" />
<glyph unicode="&#x3c;" horiz-adv-x="835" d="M59 571v293l717 414v-293l-475 -268l475 -268v-293z" />
<glyph unicode="=" horiz-adv-x="903" d="M59 336v254h785v-254h-785zM59 836v254h785v-254h-785z" />
<glyph unicode="&#x3e;" horiz-adv-x="835" d="M59 156v293l476 268l-476 268v293l717 -414v-293z" />
<glyph unicode="?" horiz-adv-x="1150" d="M53 1024v252q0 65 51 111.5t121 46.5h701q70 0 121 -46.5t51 -111.5v-528q0 -65 -51 -111.5t-121 -46.5h-211q-18 0 -29.5 -12.5t-11.5 -28.5v-115h-250v281q0 54 37 91.5t90 37.5h248q17 0 29 11t12 26v262q0 15 -12 26t-29 11h-447q-17 0 -29 -11t-12 -26v-119h-258z M420 106v58q0 44 31 75t75 31h45q44 0 75.5 -31t31.5 -75v-58q0 -44 -31.5 -75t-75.5 -31h-45q-44 0 -75 31t-31 75z" />
<glyph unicode="@" horiz-adv-x="1404" d="M160 141v824q0 58 45 99.5t108 41.5h779q63 0 108 -41.5t45 -99.5v-562q0 -58 -45 -99.5t-108 -41.5h-136q-39 0 -68 23.5t-34 56.5q-4 -32 -38.5 -56t-74.5 -24h-170q-46 0 -78 31t-32 74v366q0 43 32 74t78 31h369v-385q0 -12 8.5 -21.5t20.5 -9.5h59q18 0 28.5 10.5 t10.5 28.5v446q0 18 -10.5 28.5t-28.5 10.5h-651q-18 0 -28.5 -10.5t-10.5 -28.5v-708q0 -18 10.5 -28.5t28.5 -10.5h868v-160h-932q-63 0 -108 41.5t-45 99.5zM639 453q0 -13 8.5 -22t22.5 -9h61q12 0 21.5 9.5t9.5 21.5v225h-92q-14 0 -22.5 -9t-8.5 -22v-194z" />
<glyph unicode="A" horiz-adv-x="1380" d="M59 0l502 1434h258l502 -1434h-277l-112 336h-483l-113 -336h-277zM535 590h311l-156 461z" />
<glyph unicode="B" d="M160 0v1434h872q70 0 121 -46.5t51 -111.5v-424q0 -49 -27.5 -85t-74.5 -50q47 -14 74.5 -50t27.5 -85v-424q0 -65 -51 -111.5t-121 -46.5h-872zM418 254h487q17 0 29 11t12 26v258q0 22 -9.5 31.5t-31.5 9.5h-487v-336zM418 844h487q22 0 31.5 9.5t9.5 31.5v258 q0 15 -12 26t-29 11h-487v-336z" />
<glyph unicode="C" horiz-adv-x="1335" d="M160 158v1118q0 65 51 111.5t121 46.5h704q70 0 121 -46.5t51 -111.5v-252h-258v119q0 15 -12 26t-29 11h-450q-17 0 -29 -11t-12 -26v-852q0 -15 12 -26t29 -11h450q17 0 29 11t12 26v119h258v-252q0 -65 -51 -111.5t-121 -46.5h-704q-70 0 -121 46.5t-51 111.5z" />
<glyph unicode="D" d="M160 0v1434h872q70 0 121 -46.5t51 -111.5v-1118q0 -65 -51 -111.5t-121 -46.5h-872zM418 254h487q17 0 29 11t12 26v852q0 15 -12 26t-29 11h-487v-926z" />
<glyph unicode="E" horiz-adv-x="1331" d="M160 0v1434h1044v-254h-786v-336h528v-254h-528v-336h786v-254h-1044z" />
<glyph unicode="F" horiz-adv-x="1261" d="M160 0v1434h1042v-254h-784v-377h530v-254h-530v-549h-258z" />
<glyph unicode="G" horiz-adv-x="1368" d="M160 158v1118q0 65 51 111.5t121 46.5h704q70 0 121 -46.5t51 -111.5v-252h-258v119q0 15 -12 26t-29 11h-450q-17 0 -29 -11t-12 -26v-852q0 -15 12 -26t29 -11h450q17 0 29 11t12 26v299h-266v254h524v-686q0 -65 -51 -111.5t-121 -46.5h-704q-70 0 -121 46.5 t-51 111.5z" />
<glyph unicode="H" d="M160 0v1434h258v-590h528v590h258v-1434h-258v590h-528v-590h-258z" />
<glyph unicode="I" horiz-adv-x="577" d="M160 0v1434h258v-1434h-258z" />
<glyph unicode="J" horiz-adv-x="1267" d="M59 158v252h258v-119q0 -15 12 -26t29 -11h451q17 0 29 11t12 26v1143h258v-1276q0 -65 -51 -111.5t-121 -46.5h-705q-70 0 -121 46.5t-51 111.5z" />
<glyph unicode="K" horiz-adv-x="1372" d="M160 1434h258v-631h311l213 631h279l-224 -631h39q70 0 121 -46.5t51 -111.5v-137l2 -508h-258l-2 508v4q0 15 -12 26t-29 11h-489v-549h-258z" />
<glyph unicode="L" horiz-adv-x="1261" d="M160 0v1434h258v-1180h784v-254h-1042z" />
<glyph unicode="M" horiz-adv-x="1685" d="M160 0v1434h383l301 -836l299 836h383v-1434h-258v1057l-301 -803h-248l-301 803v-1057h-258z" />
<glyph unicode="N" d="M160 0v1434h293l493 -945v945h258v-1434h-295l-491 940v-940h-258z" />
<glyph unicode="O" horiz-adv-x="1368" d="M160 158v1118q0 65 51 111.5t121 46.5h704q70 0 121 -46.5t51 -111.5v-1118q0 -65 -51 -111.5t-121 -46.5h-704q-70 0 -121 46.5t-51 111.5zM418 291q0 -15 12 -26t29 -11h450q17 0 29 11t12 26v852q0 15 -12 26t-29 11h-450q-17 0 -29 -11t-12 -26v-852z" />
<glyph unicode="P" horiz-adv-x="1314" d="M160 0v1434h876q70 0 121 -46.5t51 -111.5v-610q0 -65 -51 -111.5t-121 -46.5h-618v-508h-258zM418 762h491q17 0 29 11t12 26v344q0 15 -12 26t-29 11h-491v-418z" />
<glyph unicode="Q" horiz-adv-x="1368" d="M160 158v1118q0 65 51 111.5t121 46.5h704q70 0 121 -46.5t51 -111.5v-1118q0 -44 -25 -81.5t-65 -58.5l82 -208h-266l-70 190h-532q-70 0 -121 46.5t-51 111.5zM418 291q0 -15 12 -26t29 -11h450q17 0 29 11t12 26v852q0 15 -12 26t-29 11h-450q-17 0 -29 -11t-12 -26 v-852z" />
<glyph unicode="R" d="M160 0v1434h872q70 0 121 -46.5t51 -111.5v-465q0 -49 -27.5 -85t-74.5 -50q47 -14 74.5 -50t27.5 -85v-541h-258v508q0 22 -9.5 31.5t-31.5 9.5h-487v-549h-258zM418 803h487q22 0 31.5 9.5t9.5 31.5v299q0 15 -12 26t-29 11h-487v-377z" />
<glyph unicode="S" d="M160 158v252h258v-119q0 -15 12 -26t29 -11h446q17 0 29 11t12 26v262q0 15 -12 26t-29 11h-573q-70 0 -121 46.5t-51 111.5v528q0 65 51 111.5t121 46.5h700q70 0 121 -46.5t51 -111.5v-252h-258v119q0 15 -12 26t-29 11h-446q-17 0 -29 -11t-12 -26v-262q0 -15 12 -26 t29 -11h573q70 0 121 -46.5t51 -111.5v-528q0 -65 -51 -111.5t-121 -46.5h-700q-70 0 -121 46.5t-51 111.5z" />
<glyph unicode="T" horiz-adv-x="1163" d="M59 1180v254h1045v-254h-393v-1180h-258v1180h-394z" />
<glyph unicode="U" horiz-adv-x="1368" d="M160 158v1276h258v-1143q0 -15 12 -26t29 -11h450q17 0 29 11t12 26v1143h258v-1276q0 -65 -51 -111.5t-121 -46.5h-704q-70 0 -121 46.5t-51 111.5z" />
<glyph unicode="V" horiz-adv-x="1368" d="M53 1434h277l354 -1051l354 1051h277l-502 -1434h-258z" />
<glyph unicode="W" horiz-adv-x="1787" d="M115 1434h266l190 -981l189 727h268l189 -725l190 979h266l-278 -1434h-287l-213 729l-215 -729h-287z" />
<glyph unicode="X" horiz-adv-x="1261" d="M59 0l426 717l-426 717h293l279 -469l278 469h293l-424 -717l424 -717h-293l-278 469l-279 -469h-293z" />
<glyph unicode="Y" horiz-adv-x="1331" d="M59 1434h291l316 -678l315 678h291l-477 -983v-451h-258v451z" />
<glyph unicode="Z" horiz-adv-x="1257" d="M106 0v254l719 926h-719v254h1045v-254l-721 -926h721v-254h-1045z" />
<glyph unicode="[" horiz-adv-x="530" d="M41 158v1118q0 65 51 111.5t121 46.5h276v-254h-149q-17 0 -29 -11t-12 -26v-852q0 -15 12 -26t29 -11h149v-254h-276q-70 0 -121 46.5t-51 111.5z" />
<glyph unicode="\" horiz-adv-x="776" d="M41 1434h258l436 -1434h-258z" />
<glyph unicode="]" horiz-adv-x="530" d="M41 0v254h149q17 0 29 11t12 26v852q0 15 -12 26t-29 11h-149v254h276q70 0 121 -46.5t51 -111.5v-1118q0 -65 -51 -111.5t-121 -46.5h-276z" />
<glyph unicode="_" horiz-adv-x="997" d="M41 0v254h915v-254h-915z" />
<glyph unicode="a" horiz-adv-x="1380" d="M59 0l502 1434h258l502 -1434h-277l-112 336h-483l-113 -336h-277zM535 590h311l-156 461z" />
<glyph unicode="b" d="M160 0v1434h872q70 0 121 -46.5t51 -111.5v-424q0 -49 -27.5 -85t-74.5 -50q47 -14 74.5 -50t27.5 -85v-424q0 -65 -51 -111.5t-121 -46.5h-872zM418 254h487q17 0 29 11t12 26v258q0 22 -9.5 31.5t-31.5 9.5h-487v-336zM418 844h487q22 0 31.5 9.5t9.5 31.5v258 q0 15 -12 26t-29 11h-487v-336z" />
<glyph unicode="c" horiz-adv-x="1335" d="M160 158v1118q0 65 51 111.5t121 46.5h704q70 0 121 -46.5t51 -111.5v-252h-258v119q0 15 -12 26t-29 11h-450q-17 0 -29 -11t-12 -26v-852q0 -15 12 -26t29 -11h450q17 0 29 11t12 26v119h258v-252q0 -65 -51 -111.5t-121 -46.5h-704q-70 0 -121 46.5t-51 111.5z" />
<glyph unicode="d" d="M160 0v1434h872q70 0 121 -46.5t51 -111.5v-1118q0 -65 -51 -111.5t-121 -46.5h-872zM418 254h487q17 0 29 11t12 26v852q0 15 -12 26t-29 11h-487v-926z" />
<glyph unicode="e" horiz-adv-x="1331" d="M160 0v1434h1044v-254h-786v-336h528v-254h-528v-336h786v-254h-1044z" />
<glyph unicode="f" horiz-adv-x="1261" d="M160 0v1434h1042v-254h-784v-377h530v-254h-530v-549h-258z" />
<glyph unicode="g" horiz-adv-x="1368" d="M160 158v1118q0 65 51 111.5t121 46.5h704q70 0 121 -46.5t51 -111.5v-252h-258v119q0 15 -12 26t-29 11h-450q-17 0 -29 -11t-12 -26v-852q0 -15 12 -26t29 -11h450q17 0 29 11t12 26v299h-266v254h524v-686q0 -65 -51 -111.5t-121 -46.5h-704q-70 0 -121 46.5 t-51 111.5z" />
<glyph unicode="h" d="M160 0v1434h258v-590h528v590h258v-1434h-258v590h-528v-590h-258z" />
<glyph unicode="i" horiz-adv-x="577" d="M160 0v1434h258v-1434h-258z" />
<glyph unicode="j" horiz-adv-x="1267" d="M59 158v252h258v-119q0 -15 12 -26t29 -11h451q17 0 29 11t12 26v1143h258v-1276q0 -65 -51 -111.5t-121 -46.5h-705q-70 0 -121 46.5t-51 111.5z" />
<glyph unicode="k" horiz-adv-x="1372" d="M160 1434h258v-631h311l213 631h279l-224 -631h39q70 0 121 -46.5t51 -111.5v-137l2 -508h-258l-2 508v4q0 15 -12 26t-29 11h-489v-549h-258z" />
<glyph unicode="l" horiz-adv-x="1261" d="M160 0v1434h258v-1180h784v-254h-1042z" />
<glyph unicode="m" horiz-adv-x="1685" d="M160 0v1434h383l301 -836l299 836h383v-1434h-258v1057l-301 -803h-248l-301 803v-1057h-258z" />
<glyph unicode="n" d="M160 0v1434h293l493 -945v945h258v-1434h-295l-491 940v-940h-258z" />
<glyph unicode="o" horiz-adv-x="1368" d="M160 158v1118q0 65 51 111.5t121 46.5h704q70 0 121 -46.5t51 -111.5v-1118q0 -65 -51 -111.5t-121 -46.5h-704q-70 0 -121 46.5t-51 111.5zM418 291q0 -15 12 -26t29 -11h450q17 0 29 11t12 26v852q0 15 -12 26t-29 11h-450q-17 0 -29 -11t-12 -26v-852z" />
<glyph unicode="p" horiz-adv-x="1314" d="M160 0v1434h876q70 0 121 -46.5t51 -111.5v-610q0 -65 -51 -111.5t-121 -46.5h-618v-508h-258zM418 762h491q17 0 29 11t12 26v344q0 15 -12 26t-29 11h-491v-418z" />
<glyph unicode="q" horiz-adv-x="1368" d="M160 158v1118q0 65 51 111.5t121 46.5h704q70 0 121 -46.5t51 -111.5v-1118q0 -44 -25 -81.5t-65 -58.5l82 -208h-266l-70 190h-532q-70 0 -121 46.5t-51 111.5zM418 291q0 -15 12 -26t29 -11h450q17 0 29 11t12 26v852q0 15 -12 26t-29 11h-450q-17 0 -29 -11t-12 -26 v-852z" />
<glyph unicode="r" d="M160 0v1434h872q70 0 121 -46.5t51 -111.5v-465q0 -49 -27.5 -85t-74.5 -50q47 -14 74.5 -50t27.5 -85v-541h-258v508q0 22 -9.5 31.5t-31.5 9.5h-487v-549h-258zM418 803h487q22 0 31.5 9.5t9.5 31.5v299q0 15 -12 26t-29 11h-487v-377z" />
<glyph unicode="s" d="M160 158v252h258v-119q0 -15 12 -26t29 -11h446q17 0 29 11t12 26v262q0 15 -12 26t-29 11h-573q-70 0 -121 46.5t-51 111.5v528q0 65 51 111.5t121 46.5h700q70 0 121 -46.5t51 -111.5v-252h-258v119q0 15 -12 26t-29 11h-446q-17 0 -29 -11t-12 -26v-262q0 -15 12 -26 t29 -11h573q70 0 121 -46.5t51 -111.5v-528q0 -65 -51 -111.5t-121 -46.5h-700q-70 0 -121 46.5t-51 111.5z" />
<glyph unicode="t" horiz-adv-x="1163" d="M59 1180v254h1045v-254h-393v-1180h-258v1180h-394z" />
<glyph unicode="u" horiz-adv-x="1368" d="M160 158v1276h258v-1143q0 -15 12 -26t29 -11h450q17 0 29 11t12 26v1143h258v-1276q0 -65 -51 -111.5t-121 -46.5h-704q-70 0 -121 46.5t-51 111.5z" />
<glyph unicode="v" horiz-adv-x="1368" d="M53 1434h277l354 -1051l354 1051h277l-502 -1434h-258z" />
<glyph unicode="w" horiz-adv-x="1787" d="M115 1434h266l190 -981l189 727h268l189 -725l190 979h266l-278 -1434h-287l-213 729l-215 -729h-287z" />
<glyph unicode="x" horiz-adv-x="1261" d="M59 0l426 717l-426 717h293l279 -469l278 469h293l-424 -717l424 -717h-293l-278 469l-279 -469h-293z" />
<glyph unicode="y" horiz-adv-x="1331" d="M59 1434h291l316 -678l315 678h291l-477 -983v-451h-258v451z" />
<glyph unicode="z" horiz-adv-x="1257" d="M106 0v254l719 926h-719v254h1045v-254l-721 -926h721v-254h-1045z" />
<glyph unicode="{" horiz-adv-x="503" d="M41 590v254h41q22 0 31.5 9.5t9.5 31.5v391q0 65 51 111.5t121 46.5h168v-254h-41q-17 0 -29 -11t-12 -26v-291q0 -49 -27.5 -85t-74.5 -50q47 -14 74.5 -50t27.5 -85v-291q0 -15 12 -26t29 -11h41v-254h-168q-70 0 -121 46.5t-51 111.5v391q0 22 -9.5 31.5t-31.5 9.5 h-41z" />
<glyph unicode="}" horiz-adv-x="503" d="M41 0v254h41q17 0 29 11t12 26v291q0 49 27.5 85t74.5 50q-47 14 -74.5 50t-27.5 85v291q0 15 -12 26t-29 11h-41v254h168q70 0 121 -46.5t51 -111.5v-391q0 -22 9.5 -31.5t31.5 -9.5h41v-254h-41q-22 0 -31.5 -9.5t-9.5 -31.5v-391q0 -65 -51 -111.5t-121 -46.5h-168z " />
<glyph unicode="&#xad;" horiz-adv-x="610" d="M41 590v254h528v-254h-528z" />
<glyph unicode="&#xd7;" horiz-adv-x="1081" d="M109 496l237 237l-235 234l180 180l235 -234l236 236l182 -184l-235 -236l233 -233l-180 -181l-234 234l-235 -236z" />
<glyph unicode="&#xf7;" horiz-adv-x="1034" d="M59 590v254h916v-254h-916zM389 274v58q0 44 31.5 75t75.5 31h45q44 0 75 -31t31 -75v-58q0 -44 -31 -75t-75 -31h-45q-44 0 -75.5 31t-31.5 75zM389 1102v57q0 44 31.5 75.5t75.5 31.5h45q44 0 75 -31.5t31 -75.5v-57q0 -44 -31 -75.5t-75 -31.5h-45q-44 0 -75.5 31.5 t-31.5 75.5z" />
<glyph unicode="&#x2000;" horiz-adv-x="798" />
<glyph unicode="&#x2001;" horiz-adv-x="1597" />
<glyph unicode="&#x2002;" horiz-adv-x="798" />
<glyph unicode="&#x2003;" horiz-adv-x="1597" />
<glyph unicode="&#x2004;" horiz-adv-x="532" />
<glyph unicode="&#x2005;" horiz-adv-x="399" />
<glyph unicode="&#x2006;" horiz-adv-x="266" />
<glyph unicode="&#x2007;" horiz-adv-x="266" />
<glyph unicode="&#x2008;" horiz-adv-x="199" />
<glyph unicode="&#x2009;" horiz-adv-x="319" />
<glyph unicode="&#x200a;" horiz-adv-x="88" />
<glyph unicode="&#x2010;" horiz-adv-x="610" d="M41 590v254h528v-254h-528z" />
<glyph unicode="&#x2011;" horiz-adv-x="610" d="M41 590v254h528v-254h-528z" />
<glyph unicode="&#x2012;" horiz-adv-x="610" d="M41 590v254h528v-254h-528z" />
<glyph unicode="&#x2013;" horiz-adv-x="1106" d="M41 590v254h1024v-254h-1024z" />
<glyph unicode="&#x2014;" horiz-adv-x="2130" d="M41 590v254h2048v-254h-2048z" />
<glyph unicode="&#x2018;" horiz-adv-x="382" d="M41 985l111 451h190l-82 -451h-219z" />
<glyph unicode="&#x2019;" horiz-adv-x="407" d="M53 983l82 451h219l-110 -451h-191z" />
<glyph unicode="&#x201c;" horiz-adv-x="759" d="M41 985l111 451h190l-82 -451h-219zM418 985l110 451h191l-82 -451h-219z" />
<glyph unicode="&#x201d;" horiz-adv-x="784" d="M53 983l82 451h219l-110 -451h-191zM430 983l82 451h219l-110 -451h-191z" />
<glyph unicode="&#x2022;" horiz-adv-x="577" d="M160 688v57q0 44 31 75.5t75 31.5h45q44 0 75.5 -31.5t31.5 -75.5v-57q0 -44 -31.5 -75t-75.5 -31h-45q-44 0 -75 31t-31 75z" />
<glyph unicode="&#x202f;" horiz-adv-x="319" />
<glyph unicode="&#x205f;" horiz-adv-x="399" />
<glyph unicode="&#x25fc;" horiz-adv-x="1433" d="M0 0v1434h1434v-1434h-1434z" />
</font>
</defs>
</svg>
