<svg xmlns="http://www.w3.org/2000/svg" width="149" height="149" viewBox="0 0 149 149">
  <g fill="none" fill-rule="evenodd">
    <rect width="147" height="147" x="1" y="1" stroke="#191919" stroke-width="2" rx="2"/>
    <g transform="translate(2 33)">
      <g fill="#191919" stroke="#F91F60" stroke-width="2">
        <circle cx="129.5" cy="77.5" r="14.5"/>
        <circle cx="8.5" cy="48.5" r="8.5"/>
        <circle cx="72.5" cy="42.5" r="42.5"/>
      </g>
      <g fill="#FFF" transform="translate(51 20.301)">
        <g transform="rotate(90 7.006 23.61)">
          <polygon points="2.237 6.63 4.794 4.219 7.351 6.63 9.588 4.521 4.794 0 0 4.521"/>
          <polygon points="4.794 13.863 2.237 11.452 0 13.562 4.794 18.082 9.588 13.562 7.351 11.452"/>
        </g>
        <path fill-rule="nonzero" d="M42.5007942,20.0635685 L23.0841877,0.647211888 C22.2212274,-0.215737296 20.926787,-0.215737296 20.0638267,0.647211888 L0.647220217,20.0635685 C-0.215740072,20.9265177 -0.215740072,22.2209415 0.647220217,23.0838907 L20.0638267,42.5002473 C20.4953069,42.9317219 21.7897473,43.7946711 23.0841877,42.5002473 L42.5007942,23.0838907 C43.3637545,22.2209415 43.3637545,20.9265177 42.5007942,20.0635685 Z M21.5740072,38.9697641 L4.17776173,21.5737296 L21.5740072,4.1776951 L38.9702527,21.5737296 L21.5740072,38.9697641 Z"/>
      </g>
    </g>
  </g>
</svg>
