<?xml version="1.0" encoding="utf-8"?>
<!-- Generator: Adobe Illustrator 21.0.0, SVG Export Plug-In . SVG Version: 6.00 Build 0)  -->
<svg version="1.1" id="Layer_1" xmlns="http://www.w3.org/2000/svg" xmlns:xlink="http://www.w3.org/1999/xlink" x="0px" y="0px"
	 viewBox="0 0 149 149" style="enable-background:new 0 0 149 149;" xml:space="preserve">
<style type="text/css">
	.st0{opacity:0;fill:none;stroke:#191919;stroke-width:2;}
	.st1{fill:#191919;stroke:#F91F60;stroke-width:2;}
	.st2{fill:#FFFFFF;}
</style>
<g>
	<path class="st0" d="M3,1h143c1.1,0,2,0.9,2,2v143c0,1.1-0.9,2-2,2H3c-1.1,0-2-0.9-2-2V3C1,1.9,1.9,1,3,1z"/>
	<g transform="translate(3 4)">
		<circle class="st1" cx="14.5" cy="127.5" r="14.5"/>
		<circle class="st1" cx="135.5" cy="8.5" r="8.5"/>
		<circle class="st1" cx="72.5" cy="71.5" r="42.5"/>
		<path class="st2" d="M90,60.8c0-3.3-2.5-6-5.9-6.4c-3.3-0.4-6.4,1.7-7.3,4.8H66.2c-0.8-3.1-3.8-5.2-7-4.9c-3.3,0.3-5.8,2.8-6.1,6
			c-0.3,3.2,1.8,6.1,5,6.9v9.7c-3.2,0.8-5.3,3.7-5,6.9c0.3,3.2,2.9,5.7,6.1,6c3.3,0.3,6.2-1.8,7-4.9h10.7c0.8,3.1,3.8,5.2,7,4.9
			c3.3-0.3,5.8-2.8,6.1-6c0.3-3.2-1.8-6.1-5-6.9v-9.7C87.9,66.4,90,63.8,90,60.8z M83.3,57.6c1.3,0,2.6,0.8,3.1,2
			c0.5,1.2,0.2,2.6-0.7,3.6c-1,0.9-2.4,1.2-3.6,0.7c-1.2-0.5-2.1-1.7-2.1-3C80,59,81.5,57.6,83.3,57.6z M56.4,60.8
			c0-1.8,1.5-3.3,3.3-3.3c1.8,0,3.3,1.5,3.3,3.3s-1.5,3.3-3.3,3.3c-0.9,0-1.7-0.3-2.4-1C56.7,62.5,56.4,61.7,56.4,60.8z M59.7,86.4
			c-1.3,0-2.6-0.8-3.1-2c-0.5-1.2-0.2-2.6,0.7-3.6s2.4-1.2,3.6-0.7c1.2,0.5,2.1,1.7,2.1,3C63,85,61.5,86.4,59.7,86.4z M76.8,81.5
			H66.2c-0.6-2.3-2.4-4.1-4.8-4.7v-9.7c2.3-0.6,4.2-2.4,4.8-4.7h10.7c0.6,2.3,2.5,4.1,4.8,4.7v9.7C79.3,77.4,77.5,79.2,76.8,81.5
			L76.8,81.5z M86.6,83.2c0,1.8-1.5,3.3-3.3,3.3c-1.8,0-3.3-1.5-3.3-3.3s1.5-3.3,3.3-3.3c0.9,0,1.7,0.3,2.4,1
			C86.3,81.5,86.6,82.3,86.6,83.2z"/>
	</g>
</g>
</svg>
