<?xml version="1.0" encoding="utf-8"?>
<!-- Generator: Adobe Illustrator 21.0.0, SVG Export Plug-In . SVG Version: 6.00 Build 0)  -->
<svg version="1.1" id="Layer_1" xmlns="http://www.w3.org/2000/svg" xmlns:xlink="http://www.w3.org/1999/xlink" x="0px" y="0px"
	 viewBox="0 0 149 149" style="enable-background:new 0 0 149 149;" xml:space="preserve">
<style type="text/css">
	.st0{opacity:0;fill:none;stroke:#191919;stroke-width:2;}
	.st1{fill:#191919;stroke:#F91F60;stroke-width:2;}
	.st2{fill:#FFFFFF;}
</style>
<g>
	<path class="st0" d="M3,1h143c1.1,0,2,0.9,2,2v143c0,1.1-0.9,2-2,2H3c-1.1,0-2-0.9-2-2V3C1,1.9,1.9,1,3,1z"/>
	<g transform="translate(2 33)">
		<g>
			<circle class="st1" cx="129.5" cy="77.5" r="14.5"/>
			<circle class="st1" cx="8.5" cy="48.5" r="8.5"/>
			<circle class="st1" cx="72.5" cy="42.5" r="42.5"/>
		</g>
		<g transform="translate(51 20.301)">
			<g transform="rotate(90 7.006 23.61)">
				<polygon class="st2" points="2.2,6.6 4.8,4.2 7.4,6.6 9.6,4.5 4.8,0 0,4.5 				"/>
				<polygon class="st2" points="4.8,13.9 2.2,11.5 0,13.6 4.8,18.1 9.6,13.6 7.4,11.5 				"/>
			</g>
			<path class="st2" d="M42.5,20.1L23.1,0.6c-0.9-0.9-2.2-0.9-3,0L0.6,20.1c-0.9,0.9-0.9,2.2,0,3l19.4,19.4c0.4,0.4,1.7,1.3,3,0
				l19.4-19.4C43.4,22.2,43.4,20.9,42.5,20.1z M21.6,39L4.2,21.6L21.6,4.2L39,21.6L21.6,39z"/>
		</g>
	</g>
</g>
</svg>
