<svg xmlns="http://www.w3.org/2000/svg" width="149" height="149" viewBox="0 0 149 149">
  <g fill="none" fill-rule="evenodd">
    <rect width="147" height="147" x="1" y="1" stroke="#191919" stroke-width="2" rx="2"/>
    <g transform="translate(3 4)">
      <circle cx="14.5" cy="127.5" r="14.5" fill="#191919" stroke="#F91F60" stroke-width="2"/>
      <circle cx="135.5" cy="8.5" r="8.5" fill="#191919" stroke="#F91F60" stroke-width="2"/>
      <circle cx="72.5" cy="71.5" r="42.5" fill="#191919" stroke="#F91F60" stroke-width="2"/>
      <path fill="#FFF" fill-rule="nonzero" d="M36.9836594,6.82908185 C36.9580163,3.54763149 34.4572424,0.791152292 31.1332046,0.38041538 C27.8091668,-0.0303215316 24.6877814,2.03145185 23.8308554,5.20384698 L13.1691446,5.20384698 C12.3642917,2.1059043 9.39395603,0.029438858 6.14115626,0.290807995 C2.88835649,0.552177131 0.303253627,3.07503345 0.0246513039,6.26003399 C-0.253951019,9.44503453 1.85532849,12.3618228 5.01533032,13.1613261 L5.01533032,22.8386739 C1.85532849,23.6381772 -0.253951019,26.5549655 0.0246513039,29.739966 C0.303253627,32.9249665 2.88835649,35.4478229 6.14115626,35.709192 C9.39395603,35.9705611 12.3642917,33.8940957 13.1691446,30.796153 L23.8308554,30.796153 C24.6357083,33.8940957 27.606044,35.9705611 30.8588437,35.709192 C34.1116435,35.4478229 36.6967464,32.9249665 36.9753487,29.739966 C37.253951,26.5549655 35.1446715,23.6381772 31.9846697,22.8386739 L31.9846697,13.1613261 C34.9253363,12.4066918 36.9780258,9.80654017 36.9836594,6.82908185 Z M30.304337,3.56626856 C31.6520878,3.56626961 32.8670508,4.36167447 33.3824194,5.58140945 C33.8977879,6.80114443 33.6120087,8.20486085 32.6584039,9.13769442 C31.7047992,10.070528 30.2712766,10.3486639 29.0266057,9.84234576 C27.7819348,9.33602759 26.9713779,8.14502527 26.9730775,6.82496733 C26.9753955,5.02457234 28.4661725,3.56626713 30.304337,3.56626856 Z M3.37700596,6.82908185 C3.37700596,5.02707983 4.86846165,3.56626856 6.70826548,3.56626856 C8.54806931,3.56626856 10.039525,5.02707983 10.039525,6.82908185 C10.039525,8.63108387 8.54806931,10.0918951 6.70826548,10.0918951 C5.82476052,10.0918951 4.97744163,9.74813545 4.35270928,9.13623926 C3.72797694,8.52434307 3.37700596,7.69443374 3.37700596,6.82908185 Z M6.69566299,32.4337314 C5.34829428,32.4337314 4.13359618,31.6387725 3.6179805,30.4195427 C3.10236482,29.200313 3.38737324,27.7969188 4.34010679,26.8637607 C5.29284034,25.9306027 6.72567445,25.6514502 7.97048081,26.1564717 C9.21528718,26.6614932 10.0269225,27.8512334 10.0269225,29.1709181 C10.0269225,30.9729202 8.53546682,32.4337314 6.69566299,32.4337314 Z M23.8392571,27.4963091 L13.1565421,27.4963091 C12.5308988,25.2165404 10.7068634,23.4394022 8.37599566,22.8386739 L8.37599566,13.1613261 C10.7090035,12.5591353 12.5335078,10.7783997 13.1565421,8.49546191 L23.8392571,8.49546191 C24.4630362,10.7794521 26.2893796,12.5604177 28.6240043,13.1613261 L28.6240043,22.8386739 C26.2893796,23.4395823 24.4630362,25.2205479 23.8392571,27.5045381 L23.8392571,27.4963091 Z M33.622994,29.1709181 C33.622994,30.9729202 32.1315383,32.4337314 30.2917345,32.4337314 C28.4519307,32.4337314 26.960475,30.9729202 26.960475,29.1709181 C26.960475,27.3689161 28.4519307,25.9081049 30.2917345,25.9081049 C31.1752395,25.9081049 32.0225584,26.2518646 32.6472907,26.8637607 C33.2720231,27.4756569 33.622994,28.3055663 33.622994,29.1709181 Z" transform="translate(53 54)"/>
    </g>
  </g>
</svg>
