<svg xmlns="http://www.w3.org/2000/svg" width="149" height="149" viewBox="0 0 149 149">
  <g fill="none" fill-rule="evenodd">
    <g transform="translate(3 19)">
      <g fill="#191919" stroke="#F91F60" stroke-width="2">
        <circle cx="14.5" cy="14.5" r="14.5"/>
        <circle cx="133.5" cy="23.5" r="8.5"/>
        <circle cx="72.5" cy="56.5" r="42.5"/>
      </g>
      <g fill="#FFF" fill-rule="nonzero" transform="translate(53 38)">
        <path d="M30,11 C27.2433333,11 25,8.75666667 25,6 C25,3.24333333 27.2433333,1 30,1 C32.7566667,1 35,3.24333333 35,6 C35,8.75666667 32.7566667,11 30,11 Z M30,3.45550746 C28.5977402,3.45550746 27.4504367,4.59544012 27.4504367,6 C27.4504367,7.40455988 28.5977402,8.54449254 30,8.54449254 C31.4022598,8.54449254 32.5495633,7.40455988 32.5495633,6 C32.5495633,4.59544012 31.4022598,3.45550746 30,3.45550746 Z"/>
        <path d="M29.7131209,3.44729971 C28.6928844,3.63493222 27.8558039,4.36373745 27.5129738,5.32679941 C25.0160524,3.72569038 22.0526889,2.79726027 18.8772563,2.79726027 C9.99711083,2.79726027 2.77545126,10.0580452 2.77545126,18.9863014 C2.77545126,27.9145575 9.99711083,35.1753425 18.8772563,35.1753425 C27.7574018,35.1753425 34.9790614,27.9145575 34.9790614,18.9863014 C34.9790614,15.1820554 33.667946,11.6805442 31.4760719,8.91445586 C32.3815328,8.47892465 33.029085,7.58309952 33.1122318,6.52936047 C36.0022852,9.86585158 37.7545126,14.2241488 37.7545126,18.9863014 C37.7545126,29.4553479 29.2861755,37.9726027 18.8772563,37.9726027 C8.46833718,37.9726027 -1.77635684e-13,29.4553479 -1.77635684e-13,18.9863014 C-1.77635684e-13,8.51725479 8.46833718,-7.10542736e-15 18.8772563,-7.10542736e-15 C22.9061115,-7.10542736e-15 26.6442406,1.27600299 29.7131209,3.44729971 Z"/>
        <path d="M18.8772563,25.5205479 C15.2985656,25.5205479 12.3862816,22.5888493 12.3862816,18.9863014 C12.3862816,15.3837534 15.2985656,12.4520548 18.8772563,12.4520548 C22.4559471,12.4520548 25.368231,15.3837534 25.368231,18.9863014 C25.368231,22.5888493 22.4559471,25.5205479 18.8772563,25.5205479 Z M18.8772563,15.3587012 C16.8863217,15.3587012 15.2704907,16.9838661 15.2704907,18.9863014 C15.2704907,20.9814815 16.8863217,22.6139016 18.8772563,22.6139016 C20.8609774,22.6139016 22.4840219,20.9814815 22.4840219,18.9863014 C22.4840219,16.9838661 20.8609774,15.3587012 18.8772563,15.3587012 Z"/>
      </g>
    </g>
    <rect width="147" height="147" x="1" y="1" stroke="#191919" stroke-width="2" rx="2"/>
  </g>
</svg>
