<?xml version="1.0" encoding="utf-8"?>
<!-- Generator: Adobe Illustrator 21.0.0, SVG Export Plug-In . SVG Version: 6.00 Build 0)  -->
<svg version="1.1" id="Layer_1" xmlns="http://www.w3.org/2000/svg" xmlns:xlink="http://www.w3.org/1999/xlink" x="0px" y="0px"
	 viewBox="0 0 149 149" style="enable-background:new 0 0 149 149;" xml:space="preserve">
<style type="text/css">
	.st0{fill:#191919;stroke:#F91F60;stroke-width:2;}
	.st1{fill:#FFFFFF;}
	.st2{opacity:0;fill:none;stroke:#191919;stroke-width:2;}
</style>
<g>
	<g transform="translate(3 19)">
		<g>
			<circle class="st0" cx="14.5" cy="14.5" r="14.5"/>
			<circle class="st0" cx="133.5" cy="23.5" r="8.5"/>
			<circle class="st0" cx="72.5" cy="56.5" r="42.5"/>
		</g>
		<g transform="translate(53 38)">
			<path class="st1" d="M30,11c-2.8,0-5-2.2-5-5s2.2-5,5-5s5,2.2,5,5S32.8,11,30,11z M30,3.5c-1.4,0-2.5,1.1-2.5,2.5
				s1.1,2.5,2.5,2.5s2.5-1.1,2.5-2.5S31.4,3.5,30,3.5z"/>
			<path class="st1" d="M29.7,3.4c-1,0.2-1.9,0.9-2.2,1.9c-2.5-1.6-5.5-2.5-8.6-2.5C10,2.8,2.8,10.1,2.8,19S10,35.2,18.9,35.2
				S35,27.9,35,19c0-3.8-1.3-7.3-3.5-10.1c0.9-0.4,1.6-1.3,1.6-2.4c2.9,3.3,4.6,7.7,4.6,12.5c0,10.5-8.5,19-18.9,19S0,29.5,0,19
				S8.5,0,18.9,0C22.9,0,26.6,1.3,29.7,3.4z"/>
			<path class="st1" d="M18.9,25.5c-3.6,0-6.5-2.9-6.5-6.5s2.9-6.5,6.5-6.5s6.5,2.9,6.5,6.5S22.5,25.5,18.9,25.5z M18.9,15.4
				c-2,0-3.6,1.6-3.6,3.6c0,2,1.6,3.6,3.6,3.6c2,0,3.6-1.6,3.6-3.6C22.5,17,20.9,15.4,18.9,15.4z"/>
		</g>
	</g>
	<path class="st2" d="M3,1h143c1.1,0,2,0.9,2,2v143c0,1.1-0.9,2-2,2H3c-1.1,0-2-0.9-2-2V3C1,1.9,1.9,1,3,1z"/>
</g>
</svg>
