<svg xmlns="http://www.w3.org/2000/svg" xmlns:xlink="http://www.w3.org/1999/xlink" viewBox="0 0 1300 780.19" style=""><defs><style>.cls-1,.cls-2,.cls-3,.cls-4,.cls-5,.cls-6{fill:none;}.cls-2,.cls-3,.cls-4,.cls-5,.cls-6{stroke-miterlimit:10;}.cls-2,.cls-3,.cls-6{stroke-width:1.68px;}.cls-2{stroke:url(#radial-gradient);}.cls-3{stroke:url(#radial-gradient-2);}.cls-4{stroke-width:1.85px;stroke:url(#radial-gradient-3);}.cls-5{stroke-width:2.61px;stroke:url(#radial-gradient-4);}.cls-6{stroke:#303042;}</style><radialGradient id="radial-gradient" cx="644.88" cy="387.5" r="406.83" gradientUnits="userSpaceOnUse"><stop offset="0" stop-color="#ffa167"></stop><stop offset="0.12" stop-color="#ff8765"></stop><stop offset="0.42" stop-color="#ff4d60"></stop><stop offset="0.68" stop-color="#ff235d"></stop><stop offset="0.88" stop-color="#ff0a5b"></stop><stop offset="1" stop-color="#ff005a"></stop></radialGradient><radialGradient id="radial-gradient-2" cx="664.64" cy="380.59" r="332.29" xlink:href="#radial-gradient"></radialGradient><radialGradient id="radial-gradient-3" cx="694.34" cy="370.28" r="220.63" xlink:href="#radial-gradient"></radialGradient><radialGradient id="radial-gradient-4" cx="719.52" cy="361.64" r="128.17" xlink:href="#radial-gradient"></radialGradient></defs><title>Asset 36</title><g id="Layer_2" data-name="Layer 2"><g id="Layer_1-2" data-name="Layer 1"><path class="cls-1 DYclFeNA_0" width="1300" height="780.19" d="M0 0 L1300 0 L1300 780.19 L0 780.19 Z"></path><path class="cls-2 DYclFeNA_1" d="M551.4,514.59c26,0,47.48,9.31,65.45,28.29s34.85,47.83,52.83,78.47,36.59,62.37,57.79,87c23.92,27.79,47.52,41.92,72.15,43.19,41.12,2.15,86.12-30.91,137.65-101,33.3-45.18,34-72.39,34.88-106.83C973.23,502,974.56,450,1037,344.51c77.55-130.67,52.1-149.92,25.15-170.31-11.07-8.37-22.51-17-27.47-33.38-9.57-31.94-27.42-72.5-48.83-90.56C953.51,22.79,917,16.45,874.4,30.86,833.34,44.74,794.11,76,768.17,98.29c-24,20.6-42.74,45.79-60.89,70.15-37.31,50.09-72.56,97.41-145.51,92.31-12.09-.83-25.47-3.43-39.64-6.19C463.66,243.17,390.88,229,341.78,329.25c-11.9,24.19-40.19,41.22-67.55,57.7-19.86,12-40.4,24.32-54.45,39.29-15.84,16.86-21.46,34.55-17.68,55.66,6.13,34.21,30.41,63.8,66.62,81.19,49.46,23.75,110.49,20.8,163.25-7.9,45.22-24.6,79.64-37.32,108.3-40Q546,514.59,551.4,514.59Z"></path><path class="cls-3 DYclFeNA_2" d="M587.4,485.14c21.5,0,39.4,7.77,54.48,23.61,14.52,15.31,28.3,38.57,42.89,63.19,28.47,48,60.74,102.51,105.34,104.81,33,1.72,69.21-24.58,110.6-80.38,27.21-36.12,28.22-57.94,29.49-85.55,1.54-33.54,3.46-75.27,54-159.73,29.24-48.24,43.12-80.89,43.7-102.73.5-19-9.32-27.31-19.73-36.14-8.57-7.28-17.44-14.82-21.36-28.56-7.31-27.55-23.06-62.15-41.81-77.39-26.68-22.36-56.65-27.55-91.63-15.88C827.42,99,798.77,117.25,765.78,146c-19.56,17-34.95,37.6-49.82,57.53-30.72,41.16-59.75,80-119.08,76.51-10.1-.51-21.27-2.53-33.1-4.67-47-8.5-105.44-19.08-145,60.21-9.85,19.17-33.1,32.79-55.58,46-33.35,19.54-67.83,39.74-60.89,78.37h0c5,27.62,24.51,51.48,53.67,65.48A133.92,133.92,0,0,0,414,538.31a157.29,157.29,0,0,0,74.89-19.53c37.29-20.28,65.54-30.82,88.91-33.15Q582.72,485.14,587.4,485.14Z"></path><path class="cls-4 DYclFeNA_3" d="M641.38,441c14.79,0,27.28,5.46,38,16.59,9.47,9.94,18.45,24.67,28,40.26,18.66,30.61,39.82,65.3,68.47,66.78,20.92,1.1,43.85-15.09,70-49.46,18.14-22.6,19.61-36.36,21.46-53.77,2.26-21.21,5.07-47.6,37.61-100.41,20-31.09,30-52.29,31.59-66.76,1.36-12.46-3.73-18.43-9.62-25.35-4.53-5.32-9.67-11.35-12-21l0-.09c-3.77-19.78-15.71-45.87-31.23-57.46l-.06,0c-32-25.94-72.87-16.72-121.44,27.38C749.26,229.25,738.94,243,729,256.27c-20.4,27.17-39.7,52.86-77,52.86-.8,0-1.61,0-2.43,0-7.12,0-15-1.12-23.3-2.31-31.3-4.45-66.77-9.5-92.07,38.43l0,.07c-6.74,11.62-21.66,19.72-37.44,28.29-24.1,13.09-49,26.62-44.17,53.49h0c3.19,17.74,15.67,33,34.24,41.92,26.17,12.55,58.88,10.76,87.5-4.81,25.76-14,44.2-21,59.81-22.8A65.21,65.21,0,0,1,641.38,441Z"></path><path class="cls-5 DYclFeNA_4" d="M686.36,404.14c8.58,0,16.69,3,24.32,10.73,5.24,5.44,10.19,13,15.43,21.06,10.51,16.12,22.43,34.38,37.86,35.2,10.86.58,22.74-7.19,36.25-23.75l.1-.12c10.73-11.46,12.51-18.28,15-27.71,2.83-10.85,6.36-24.36,23.64-50.44L839,369c27-36.79,24.18-43.94,19.9-54.77a57.75,57.75,0,0,1-3.86-13c0-.05,0-.1,0-.16-1.41-15.73-11-33.22-22.32-40.68l-.12-.09c-28.49-21.52-60.76,4.69-73.31,17-7.44,7.09-13.52,15.09-19.41,22.82-12.58,16.55-24.47,32.19-46.18,33.15a95.39,95.39,0,0,1-15.3-.09c-17-1-34.64-2-48,20.14l-.14.21c-4.1,5.36-12.68,9.29-21.76,13.46-16.62,7.63-33.8,15.51-30.67,32.66h0c1.75,9.65,8.17,17.58,18.07,22.32,14.5,6.94,33,5.71,49.6-3.29C660.05,410.73,673.71,404.14,686.36,404.14Z"></path><path class="cls-6 DYclFeNA_5" d="M805.91,772.51c-1.34,0-2.68,0-4-.1C775.44,771,750.21,756,724.74,726.33c-22.32-26-41.83-59.3-60.71-91.53-18.76-32-36.47-62.29-55-81.89-20.79-22-46.28-31.21-77.93-28.23-29.69,2.79-65.37,16-112.31,41.52-28.46,15.48-59.93,24.13-91,25-28.95.84-57.24-5-81.81-16.77-38.61-18.54-64.51-50.14-71.06-86.69-8.94-49.93,34.22-76.06,76-101.33,28.31-17.14,57.58-34.86,69.71-59.72,52.21-107,129.48-91.76,191.56-79.49,14.69,2.9,28.56,5.64,41,6.54,75.17,5.39,111.63-43.56,150.22-95.39,19-25.56,38.72-52,64-73.65,27.3-23.4,68.57-56.2,111.6-70.78,21.12-7.16,41.28-9.45,59.92-6.82,20.93,3,40.66,12.21,58.65,27.5,22.09,18.78,41,61.32,51.25,94.87,5,16.31,16.8,25,28.2,33.47,14.25,10.54,29,21.44,29.29,47,.33,28.43-16.87,71-54.14,134.07-65.18,110.27-66.36,164.45-67.3,208-.79,36.54-1.42,65.4-36.65,113.4C895.3,737.4,848.71,772.5,805.91,772.51Z"></path><path class="cls-6 DYclFeNA_6" d="M560.4,507.23c24.87,0,45.46,8.93,62.71,27.12,17,18,33.22,45.52,50.35,74.65s34.89,59.35,55.1,82.78c22.78,26.42,45.25,39.85,68.69,41.07,39.07,2,81.9-29.33,130.89-95.85,31.78-42.91,32.55-68.77,33.53-101.51,1.19-39.69,2.67-89.08,62.17-189.33,74.08-124.27,50.17-142.81,24.86-162.44-10.45-8.1-21.25-16.48-25.95-32.18-8.53-29.23-26-69.61-47.08-87.27-31-26.19-65.8-32.24-106.53-18.52-30,10.12-62.29,30.61-101.57,64.49-22.87,19.7-40.79,43.74-58.12,67-33.95,45.55-66.11,88.69-129.1,88.7-3.19,0-6.45-.11-9.81-.34-11.59-.75-24.42-3.21-38-5.81C476.94,249.1,407.75,235.83,361,330.85c-11.39,22.93-38.42,39.11-64.57,54.76-19.08,11.42-38.81,23.23-52.32,37.55-15.22,16.12-20.62,33-17,53.26h0c5.84,32.56,28.94,60.72,63.38,77.26,47.14,22.63,105.33,19.8,155.67-7.59,43.24-23.52,76.11-35.7,103.45-38.32Q555.16,507.23,560.4,507.23Z"></path><path class="cls-6 DYclFeNA_7" d="M569.4,499.87c23.74,0,43.44,8.54,60,25.95,16.2,17.1,31.58,43.2,47.86,70.83C709,650.51,745,711.57,794.87,714.15c37.06,1.9,77.67-27.75,124.13-90.69,30.25-40.65,31.1-65.16,32.18-96.19,1.31-37.64,2.93-84.48,59.44-179.46,32.36-54,47.53-90.49,47.75-114.8.19-21.15-11.16-30.2-23.18-39.78-9.83-7.83-20-15.93-24.42-31-7.93-28-24.56-66.76-45.32-84C935.91,53.35,902.7,47.59,863.88,60.63,835.1,70.3,804.3,89.85,767,122.17,745.21,141,728.13,163.87,711.62,186c-32.44,43.5-63.16,84.71-123.3,84.71q-4.39,0-9-.3c-11.1-.67-23.37-3-36.37-5.43-52.72-9.94-118.34-22.32-162.68,67.45-10.88,21.68-36.65,37-61.57,51.83-18.3,10.88-37.22,22.14-50.19,35.81-14.6,15.38-19.78,31.54-16.32,50.85h0c5.54,30.91,27.46,57.64,60.14,73.33,44.81,21.51,100.17,18.79,148.1-7.28,41.26-22.44,72.59-34.07,98.61-36.6Q564.34,499.87,569.4,499.87Z"></path><path class="cls-6 DYclFeNA_8" d="M578.4,492.5c22.62,0,41.42,8.16,57.22,24.78,15.36,16.21,29.94,40.89,45.37,67,30.11,51,64.23,108.71,111.49,111.16,35,1.78,73.44-26.17,117.37-85.54,28.73-38.38,29.66-61.55,30.83-90.87,1.42-35.59,3.2-79.88,56.72-169.6,30.8-51.13,45.32-85.68,45.72-108.76.35-20.06-10.24-28.75-21.45-38-9.2-7.56-18.71-15.37-22.89-29.77-7.93-28.87-24.47-65-43.57-80.68-64.11-53.91-138.48-1.94-188.84,41.84-20.66,17.89-36.89,39.65-52.59,60.69-30.93,41.46-60.23,80.72-117.5,80.72-2.67,0-5.39-.09-8.19-.26-10.6-.59-22.32-2.76-34.74-5.05C503.51,261,441.47,249.51,399.51,334c-10.36,20.42-34.88,34.9-58.58,48.89-34.9,20.61-71,41.92-63.7,82.52h0c5.25,29.27,26,54.56,56.9,69.4,42.48,20.39,95,17.79,140.53-7,39.27-21.36,69.07-32.44,93.76-34.87Q573.53,492.5,578.4,492.5Z"></path><path class="cls-6 DYclFeNA_9" d="M596.4,477.78c20.38,0,37.38,7.39,51.74,22.44,13.68,14.42,26.66,36.25,40.4,59.37,26.84,45.14,57.25,96.3,99.19,98.47,31,1.61,65-23,103.84-75.23,25.69-33.86,26.77-54.33,28.14-80.24,1.66-31.48,3.73-70.66,51.27-149.86,27.68-45.37,40.92-76.09,41.67-96.71.65-17.87-8.41-25.86-18-34.33-7.95-7-16.16-14.26-19.81-27.33-6.48-25.4-21.77-59.39-40.06-74.09-24.91-20.79-54.06-25.83-86.67-15-24.72,8.21-51.85,25.45-82.93,52.71-18.46,16.09-33,35.56-47.06,54.38-27.92,37.37-54.35,72.74-105.91,72.75-2.15,0-4.33-.06-6.56-.19-9.61-.43-20.22-2.3-31.47-4.28-44.1-7.78-99-17.46-136.19,56.59-9.34,17.92-31.32,30.68-52.58,43-31.8,18.47-64.68,37.56-58.09,74.23h0c4.66,26,23,48.4,50.43,61.55,37.82,18.15,84.69,15.78,125.38-6.35,35.31-19.21,62-29.19,84.06-31.42A91.5,91.5,0,0,1,596.4,477.78Z"></path><path class="cls-6 DYclFeNA_10" d="M605.4,470.42c19.26,0,35.36,7,49,21.27,12.83,13.52,25,33.94,37.91,55.55,25.2,42.23,53.77,90.1,93,92.13,29,1.5,60.76-21.42,97.08-70.07,24.18-31.6,25.33-50.72,26.8-74.93,1.78-29.43,4-66.06,48.55-140,26.13-42.49,38.72-71.31,39.65-90.69.8-16.78-7.51-24.42-16.3-32.52-7.31-6.73-14.88-13.69-18.26-26.1-5.89-24.15-20.38-56.57-38.3-70.79-23.51-19.53-51-24.28-81.71-14.13-23.49,7.76-49.1,24-78.27,49.77-17.35,15.19-31,33.51-44.29,51.22-27.43,36.69-53.35,71.34-105.86,68.61-9.11-.35-19.17-2.07-29.83-3.9-41.23-7.06-92.54-15.85-127.36,53-8.83,16.67-28.62,28-49.58,40.09-30.25,17.39-61.54,35.38-55.29,70.08h0c4.37,24.32,21.57,45.33,47.19,57.62,35.49,17,79.53,14.78,117.8-6,33.33-18.13,58.5-27.56,79.21-29.7A86.27,86.27,0,0,1,605.4,470.42Z"></path><path class="cls-6 DYclFeNA_11" d="M614.39,463.05c18.14,0,33.34,6.62,46.26,20.1,12,12.63,23.38,31.62,35.43,51.73,23.57,39.33,50.28,83.9,86.89,85.79,27,1.39,56.53-19.84,90.32-64.92,22.66-29.35,23.9-47.12,25.46-69.63,1.9-27.38,4.27-61.45,45.82-130.1,53.38-86.07,39.31-99.66,23-115.4-6.68-6.45-13.59-13.12-16.71-24.85-5.32-22.91-19-53.76-36.54-67.48C875.13,115.88,826,126.87,764,181.86c-16.25,14.29-29.1,31.46-41.53,48.07-24.9,33.28-48.48,64.78-94.32,64.78-1.62,0-3.25,0-4.93-.12-8.61-.26-18.13-1.84-28.2-3.51-40.35-6.68-86.09-14.25-118.54,49.33-8.32,15.42-26.89,26-46.56,37.16-28.71,16.32-58.4,33.19-52.5,65.94h0c4.07,22.68,20.09,42.25,44,53.7,33.16,15.92,74.37,13.77,110.23-5.73,31.35-17.05,55-25.94,74.36-28A81.11,81.11,0,0,1,614.39,463.05Z"></path><path class="cls-6 DYclFeNA_12" d="M623.41,455.69c16.24,0,30.71,5.62,43.5,18.93,11.15,11.73,21.74,29.31,32.94,47.91,21.93,36.42,46.79,77.7,80.75,79.45,25,1.31,52.3-18.26,83.56-59.77,21.15-27.09,22.46-43.53,24.12-64.33,2-25.32,4.53-56.84,43.09-120.22,50-79.76,37.32-92.66,22.68-107.6-6-6.17-12.29-12.54-15.14-23.59-4.91-22.37-18.42-51.55-34.78-64.17-37-30.4-83-20.08-140.74,31.49-15.15,13.39-27.15,29.42-38.76,44.92-23.4,31.24-45.55,60.8-88.54,60.8-1.35,0-2.71,0-4.1-.09-8.11-.18-17.08-1.6-26.56-3.11-37.33-5.93-79.65-12.66-109.71,45.7-7.8,14.17-25.16,23.91-43.55,34.22-27.17,15.24-55.26,31-49.71,61.79h0c3.78,21,18.62,39.17,40.71,49.77a102.43,102.43,0,0,0,44.4,9.82,122.4,122.4,0,0,0,58.25-15.24C575.2,466.4,601,455.69,623.41,455.69Z"></path><path class="cls-6 DYclFeNA_13" d="M632.44,448.39c15.19,0,28.73,5.25,40.72,17.69,10.31,10.84,20.09,27,30.45,44.09,20.3,33.51,43.3,71.5,74.61,73.12,22.95,1.18,48.08-16.68,76.8-54.61,19.64-24.84,21-39.94,22.79-59,2.14-23.27,4.8-52.22,40.35-110.32,46.56-73.47,35.33-85.69,22.33-99.84-5.15-5.6-11-12-13.56-22.3l0-.08c-4.33-21-17-48.67-33-60.79-19.31-15.77-41.78-19.63-66.84-11.51-19.5,6.31-41.13,20.08-64.28,40.93-14,12.49-25.21,27.37-36,41.76-21.9,29.2-42.63,56.83-82.76,56.83-1.08,0-2.16,0-3.27-.06-7.62-.09-16-1.36-24.93-2.71-34.31-5.19-73.21-11.07-100.89,42.07-7.29,12.93-23.43,21.85-40.52,31.29-25.63,14.17-52.14,28.82-46.94,57.64h0c3.49,19.38,17.14,36.09,37.47,45.85,28.5,13.67,64,11.76,95.07-5.12C587.45,458.38,611.51,448.39,632.44,448.39Z"></path><path class="cls-6 DYclFeNA_14" d="M650.52,433.56c13.05,0,24.65,4.62,35.15,15.46,8.63,9,16.8,22.35,25.46,36.43,17,27.7,36.33,59.1,62.33,60.45,18.94,1,39.63-13.51,63.28-44.31,16.65-20.37,18.19-32.79,20.14-48.51,2.38-19.15,5.34-43,34.86-90.49,39.83-61,31.78-71.33,21.59-84.43-3.91-5-8.34-10.72-10.36-19.6l0-.1c-3.23-18.54-14.38-43.09-29.45-54.12l-.07-.05c-16.45-13.21-35.59-16.48-56.87-9.72-17,5.41-35.51,17.19-54.95,35-11.84,10.69-21.31,23.28-30.47,35.46-18.91,25.14-36.78,48.9-71.21,48.9l-1.57,0c-6.61.1-13.93-.87-21.67-1.89-28.28-3.72-60.33-7.94-83.25,34.79l0,.09c-6.22,10.36-19.9,17.64-34.38,25.34-22.58,12-45.92,24.42-41.41,49.33h0c2.9,16.09,14.2,29.94,31,38,23.84,11.43,53.72,9.75,79.92-4.5C612.47,442,632.83,433.56,650.52,433.56Z"></path><path class="cls-6 DYclFeNA_15" d="M659.56,426.28c12,0,22.67,4.25,32.37,14.2,7.78,8.15,15.16,20,23,32.6,15.4,24.8,32.85,52.91,56.2,54.13,16.92.88,35.4-11.93,56.52-39.17l0-.06c15.11-18.08,16.65-28.62,18.78-43.21,2.5-17.08,5.6-38.35,32.1-80.54,36.52-54.82,29.76-64.53,21.2-76.81-3.28-4.71-7-10.06-8.75-18.17l0-.12c-2.64-16.89-13.23-40.43-27.68-50.77l-.08-.06C828.84,191,788.66,215.85,761,241.52c-10.74,9.79-19.37,21.23-27.71,32.3-17.41,23.11-33.87,44.94-65.45,44.95h-.67c-6.2.18-12.95-.62-20.09-1.47-25.27-3-53.9-6.4-74.44,31.14l-.06.11c-5.7,9.11-18.13,15.56-31.29,22.38-21.06,10.92-42.84,22.21-38.68,45.17h0c2.61,14.45,12.73,26.87,27.77,34.08,21.51,10.31,48.55,8.74,72.34-4.2C624.67,434,643.33,426.28,659.56,426.28Z"></path><path class="cls-6 DYclFeNA_16" d="M668.6,418.81c10.92,0,20.59,4,29.58,13.14,6.94,7.25,13.51,17.7,20.46,28.76,13.77,21.9,29.37,46.73,50.08,47.81,14.9.77,31.18-10.35,49.76-34l.06-.07c13.63-15.85,15.24-25.14,17.48-38,2.61-15,5.86-33.7,29.32-70.57,33.27-48.73,27.76-57.8,20.79-69.3-2.65-4.38-5.66-9.34-7.11-16.64,0,0,0-.09,0-.13-2.52-18.47-13.65-38.86-25.9-47.42l-.1-.07c-13.65-10.71-29.46-13.39-47-8-14.5,4.49-29.84,14.28-45.59,29.12-9.64,8.89-17.42,19.19-24.94,29.14-15.89,21-30.89,40.9-59.48,41-5.71.28-11.92-.36-18.48-1-22.25-2.29-47.47-4.88-65.63,27.49l-.08.13c-5.18,7.86-16.34,13.47-28.17,19.42-19.56,9.83-39.78,20-36,41h0c2.35,13,11.06,23.7,24.53,30.16,19.17,9.19,43.38,7.74,64.76-3.89C637.29,425.83,654.05,418.81,668.6,418.81Z"></path><path class="cls-6 DYclFeNA_17" d="M677.34,411.5c10.33,0,19.23,3.93,27.09,11.91,6.09,6.34,11.85,15.36,17.95,24.92,12.14,19,25.89,40.55,44,41.5,12.87.67,27-8.77,43-28.88l.08-.09c12.17-13.64,13.86-21.68,16.2-32.82,2.73-12.94,6.12-29,26.51-60.54l0-.07c30-42.66,26-50.72,20.32-61.87A51.2,51.2,0,0,1,867,290.59s0-.1,0-.14c-1.95-17.09-12.32-36-24.11-44.06l-.11-.08c-30.38-23.43-65,1.89-82.93,19.06-8.54,8-15.47,17.14-22.18,26-14.24,18.79-27.68,36.55-52.84,37.07a110.11,110.11,0,0,1-16.88-.58c-19.24-1.6-41.05-3.41-56.83,23.82l-.11.17c-4.65,6.61-14.53,11.39-25,16.45-18.07,8.74-36.76,17.77-33.29,36.84h0c2,11.32,9.61,20.64,21.3,26.24,16.84,8.07,38.21,6.73,57.18-3.59,13.34-7.26,27.47-14.2,40.38-15.89A44.41,44.41,0,0,1,677.34,411.5Z"></path><path class="cls-6 DYclFeNA_18" d="M695.44,396.76c7.53,0,14.64,2.72,21.49,9.57,4.37,4.52,8.51,10.67,12.88,17.18,8.89,13.23,19,28.23,31.79,28.93,8.89.49,18.52-5.61,29.5-18.63l.14-.16c9.37-9.32,11.15-14.66,13.86-22.74,2.77-8.28,6.57-19.63,20.65-40.19l.08-.12c24.19-31.15,22.43-37.54,19.52-48.14a74,74,0,0,1-2.3-10.58c0-.05,0-.11,0-.16-.9-14.62-9.54-30.3-20.53-37.29l-.13-.09c-25.47-18.71-53,4.16-63.68,14.86-6.34,6.18-11.57,13-16.63,19.65-10.93,14.31-21.26,27.83-39.51,29.23a80.79,80.79,0,0,1-13.76.45c-13.88-.31-28.25-.63-39.26,16.43a2.34,2.34,0,0,1-.2.27c-3.54,4.11-10.43,7-18.39,10.46-14.5,6.2-30.93,13.22-28.13,28.47h0c1.45,8,6.73,14.52,14.85,18.41,12.16,5.82,27.86,4.7,42-3C672.79,402.44,684.56,396.76,695.44,396.76Z"></path><path class="cls-6 DYclFeNA_19" d="M704.27,389.42c6.43,0,12.77,2.29,18.91,8.37,3.5,3.59,6.8,8.29,10.29,13.26,7.64,10.88,15.54,22.12,25.78,22.71,6.89.39,14.32-4,22.76-13.54l.2-.2c8.16-7.28,10-11.34,13-18.08,2.81-6.24,6.66-14.8,17.35-29.62l.12-.15c21.83-25.87,21-31.09,19.31-42.53-.32-2.08-.67-4.44-.93-7.12,0-.05,0-.11,0-.16-.41-13.26-8.28-27.51-18.73-33.88l-.14-.09c-15.57-11-35.78-6.25-54.06,12.73a167.74,167.74,0,0,0-13.84,16.46c-9.28,12.07-18,23.48-32.81,25.33A67.11,67.11,0,0,1,699.19,344c-10.75.3-21.86.6-30.48,12.69a2.48,2.48,0,0,1-.29.34c-2.95,2.85-8.44,5-14.81,7.42-16,6.16-28,11.85-25.76,24.25h0c1.15,6.32,5.28,11.47,11.63,14.51,9.66,4.62,22.85,3.58,34.41-2.71C684,395,694.22,389.42,704.27,389.42Z"></path><path class="cls-6 DYclFeNA_20" d="M713.37,382c5.37,0,10.66,2,16,7.28a94.67,94.67,0,0,1,7.6,9.25c6,7.91,12.18,16.09,19.89,16.59,4.9.32,10.14-2.47,16-8.49a2.49,2.49,0,0,1,.31-.27c7.45-5.48,9.26-8.27,13.24-14.38a217.65,217.65,0,0,1,12.93-18.06l.17-.19c20.49-21.24,20.27-25.54,19.52-39.81l0-.77s0-.1,0-.15c.06-11.92-7.06-24.73-16.92-30.45l-.14-.09c-15.85-10.59-33.36-1.48-44.45,10.58a170,170,0,0,0-11,13.2c-7.64,9.84-14.85,19.14-26.1,21.48a55.58,55.58,0,0,1-11,1.88c-8,.82-15.46,1.59-21.67,8.87a2.56,2.56,0,0,1-.46.42c-2.25,1.61-6,2.82-10.74,4.35-14.15,4.57-25.71,9.23-23.71,20h0a14.49,14.49,0,0,0,8.43,10.62c7.34,3.5,17.61,2.57,26.8-2.43l.35-.19C697.31,386.38,705.42,382,713.37,382Z"></path><path class="cls-6 DYclFeNA_21" d="M722.27,374.63c4.32,0,8.76,1.63,13.38,6.06,1.52,1.51,3,3.15,4.48,4.89,8.41,9.61,14.21,14.89,23.92,7.23a2.64,2.64,0,0,1,.52-.32c9.08-4.23,10.62-5.64,21.81-17.19l.24-.22c16.15-12.94,20.36-19.4,20.45-31.44,0,0,0-.07,0-.1a30.19,30.19,0,0,0-15.1-27l-.11-.06c-11-6.7-24.69-3.41-34.86,8.39-2.9,3.28-5.46,6.53-7.93,9.67-6.32,8-11.78,15-19.45,17.84a46,46,0,0,1-10.56,3.28c-4.51,1-8.77,2-12.46,4.76a2.64,2.64,0,0,1-.72.39,49.9,49.9,0,0,1-5.34,1.33c-11.88,2.57-24.4,6.11-22.64,15.55h0a9.09,9.09,0,0,0,5.25,6.75c5,2.37,12.33,1.54,19.17-2.18l2.3-1.26C710.37,377.85,716.2,374.63,722.27,374.63Z"></path><path class="cls-6 DYclFeNA_22" d="M731.13,367.22c3.29,0,6.87,1.28,10.76,4.92,9.2,8.61,22.85,7.74,32.56,4.05,11.73-4.45,19.85-13.12,20.68-22.08,1.08-11.62-6.84-21.07-15.22-24.39-8.72-3.45-17.24-.91-23.39,7-12.73,16.35-20.84,26.11-30.19,26.11a14,14,0,0,1-2.63-.25c-3.05-.58-14.72.13-19.21,4.62a5.2,5.2,0,0,0-1.5,5h0a3.81,3.81,0,0,0,2.15,3c2.57,1.22,7,.45,11.46-2,.91-.49,1.8-1,2.75-1.59C722.77,369.55,726.69,367.22,731.13,367.22Z"></path></g></g><style data-made-with="vivus-instant">.DYclFeNA_0{stroke-dasharray:4161 4163;stroke-dashoffset:4162;animation:DYclFeNA_draw 4000ms ease-in-out 0ms forwards;}.DYclFeNA_1{stroke-dasharray:2605 2607;stroke-dashoffset:2606;animation:DYclFeNA_draw 4000ms ease-in-out 90ms forwards;}.DYclFeNA_2{stroke-dasharray:2123 2125;stroke-dashoffset:2124;animation:DYclFeNA_draw 4000ms ease-in-out 181ms forwards;}.DYclFeNA_3{stroke-dasharray:1403 1405;stroke-dashoffset:1404;animation:DYclFeNA_draw 4000ms ease-in-out 272ms forwards;}.DYclFeNA_4{stroke-dasharray:806 808;stroke-dashoffset:807;animation:DYclFeNA_draw 4000ms ease-in-out 363ms forwards;}.DYclFeNA_5{stroke-dasharray:2739 2741;stroke-dashoffset:2740;animation:DYclFeNA_draw 4000ms ease-in-out 454ms forwards;}.DYclFeNA_6{stroke-dasharray:2484 2486;stroke-dashoffset:2485;animation:DYclFeNA_draw 4000ms ease-in-out 545ms forwards;}.DYclFeNA_7{stroke-dasharray:2364 2366;stroke-dashoffset:2365;animation:DYclFeNA_draw 4000ms ease-in-out 636ms forwards;}.DYclFeNA_8{stroke-dasharray:2244 2246;stroke-dashoffset:2245;animation:DYclFeNA_draw 4000ms ease-in-out 727ms forwards;}.DYclFeNA_9{stroke-dasharray:2003 2005;stroke-dashoffset:2004;animation:DYclFeNA_draw 4000ms ease-in-out 818ms forwards;}.DYclFeNA_10{stroke-dasharray:1883 1885;stroke-dashoffset:1884;animation:DYclFeNA_draw 4000ms ease-in-out 909ms forwards;}.DYclFeNA_11{stroke-dasharray:1763 1765;stroke-dashoffset:1764;animation:DYclFeNA_draw 4000ms ease-in-out 1000ms forwards;}.DYclFeNA_12{stroke-dasharray:1643 1645;stroke-dashoffset:1644;animation:DYclFeNA_draw 4000ms ease-in-out 1090ms forwards;}.DYclFeNA_13{stroke-dasharray:1523 1525;stroke-dashoffset:1524;animation:DYclFeNA_draw 4000ms ease-in-out 1181ms forwards;}.DYclFeNA_14{stroke-dasharray:1283 1285;stroke-dashoffset:1284;animation:DYclFeNA_draw 4000ms ease-in-out 1272ms forwards;}.DYclFeNA_15{stroke-dasharray:1164 1166;stroke-dashoffset:1165;animation:DYclFeNA_draw 4000ms ease-in-out 1363ms forwards;}.DYclFeNA_16{stroke-dasharray:1044 1046;stroke-dashoffset:1045;animation:DYclFeNA_draw 4000ms ease-in-out 1454ms forwards;}.DYclFeNA_17{stroke-dasharray:925 927;stroke-dashoffset:926;animation:DYclFeNA_draw 4000ms ease-in-out 1545ms forwards;}.DYclFeNA_18{stroke-dasharray:688 690;stroke-dashoffset:689;animation:DYclFeNA_draw 4000ms ease-in-out 1636ms forwards;}.DYclFeNA_19{stroke-dasharray:571 573;stroke-dashoffset:572;animation:DYclFeNA_draw 4000ms ease-in-out 1727ms forwards;}.DYclFeNA_20{stroke-dasharray:455 457;stroke-dashoffset:456;animation:DYclFeNA_draw 4000ms ease-in-out 1818ms forwards;}.DYclFeNA_21{stroke-dasharray:342 344;stroke-dashoffset:343;animation:DYclFeNA_draw 4000ms ease-in-out 1909ms forwards;}.DYclFeNA_22{stroke-dasharray:237 239;stroke-dashoffset:238;animation:DYclFeNA_draw 4000ms ease-in-out 2000ms forwards;}@keyframes DYclFeNA_draw{100%{stroke-dashoffset:0;}}@keyframes DYclFeNA_fade{0%{stroke-opacity:1;}95.74468085106383%{stroke-opacity:1;}100%{stroke-opacity:0;}}</style></svg>